<svg width="1024.000000" height="1024.000000" viewBox="0 0 1024 1024" fill="none" xmlns="http://www.w3.org/2000/svg" xmlns:xlink="http://www.w3.org/1999/xlink">
	<rect id="App icon - Creat here" width="1024.000000" height="1024.000000" fill="#21283F"/>
	<path id="Vector" d="M651.722 599.158C645.656 599.158 640.197 598.788 634.434 598.48L629.157 598.111L617.026 597.125L611.384 596.57C606.896 596.077 602.468 595.584 598.04 594.968L594.036 594.475C588.335 593.674 582.693 592.75 576.992 591.764C575.657 591.764 574.323 591.271 572.988 591.025C568.621 590.224 564.254 589.361 559.947 588.437L554.67 587.266C550.666 586.342 546.602 585.418 542.538 584.371L537.504 583.138C533.5 582.091 529.558 580.797 525.372 579.873C517.547 578.086 510.208 574.574 502.444 572.602C500.927 572.233 551.576 600.329 594.34 623.927C600.273 627.147 606.925 628.753 613.649 628.59C620.374 628.427 626.943 626.5 632.718 622.997C638.493 619.493 643.278 614.532 646.608 608.595C649.938 602.658 651.699 595.948 651.722 589.115L651.722 599.158Z" fill-rule="nonzero" fill="#E06B00"/>
	<path id="Vector" d="M466.115 440.317C486.229 440.387 505.663 432.93 520.707 419.369C524.063 405.275 530.273 392.046 538.941 380.526C547.609 369.005 558.545 359.445 571.053 352.456L555.706 309.942C554.935 307.815 554.722 305.521 555.088 303.285C555.454 301.049 556.386 298.948 557.794 297.189C559.201 295.429 561.035 294.073 563.115 293.252C565.195 292.431 567.45 292.173 569.658 292.506L643.356 303.719C653.033 289.772 660.807 274.56 666.467 258.495C670.28 247.351 672.327 235.664 672.532 223.868C627.524 195.839 576.289 179.777 523.558 177.165C518.281 176.733 512.7 176.733 507.241 176.733C501.782 176.733 496.383 176.733 490.985 177.165C440.083 179.843 390.569 194.964 346.653 221.243C302.736 247.522 265.714 284.182 238.733 328.107C211.752 372.033 195.609 421.925 191.677 473.545C187.745 525.165 196.139 576.986 216.146 624.604L218.815 619.244C219.3 618.381 219.725 617.457 220.21 616.533C221.787 613.699 223.364 610.865 225.063 608.092C225.487 607.476 225.851 606.86 226.276 606.305C227.61 604.087 229.066 601.931 230.522 600.144L232.584 597.248C233.797 595.523 235.071 593.859 236.406 592.196C237.74 590.532 237.922 590.162 238.711 589.177L242.835 584.309L245.322 581.352C247.263 579.257 249.285 577.203 251.388 575.19C251.691 574.882 251.995 574.512 252.359 574.204C285.149 541.772 329.119 523.641 374.887 523.681C380.528 523.681 386.108 523.681 391.628 524.544L424.019 530.705C428.083 531.876 432.087 533.231 436.151 534.71L442.216 537.174C444.157 538.037 446.159 538.776 448.282 539.701C450.405 540.625 453.013 542.042 455.379 543.274L459.504 545.431C461.93 546.725 464.235 548.203 466.601 549.682C467.692 550.36 468.784 550.914 469.876 551.654C470.423 551.946 470.95 552.275 471.453 552.639C489.837 564.995 509.906 574.545 531.019 580.982L538.298 583.015L543.332 584.247C547.336 585.295 551.4 586.219 555.464 587.143L561.044 588.314C565.351 589.238 569.718 590.101 574.086 590.902C575.42 590.902 576.754 591.456 578.089 591.641C583.791 592.627 589.432 593.551 595.134 594.352L599.137 594.845C603.565 595.461 607.993 595.954 612.482 596.447L618.123 597.001L630.254 597.987L635.531 598.357L648.633 598.973C649.18 598.981 649.723 598.879 650.231 598.672C650.738 598.465 651.2 598.158 651.589 597.768C651.979 597.378 652.288 596.913 652.499 596.401C652.71 595.889 652.819 595.339 652.819 594.783L652.819 566.995C652.837 564.465 652.351 561.956 651.391 559.621C650.43 557.285 649.016 555.171 647.231 553.404C645.447 551.638 643.33 550.256 641.006 549.341C638.683 548.426 636.202 547.997 633.712 548.08L632.317 548.08L630.315 548.08C627.1 548.08 623.885 548.573 620.61 548.573L618.79 548.573C608.337 550.029 597.799 550.771 587.248 550.791C537.292 550.844 488.671 534.411 448.707 503.965C442.912 499.339 437.364 494.402 432.087 489.177C426.881 484.111 422.997 477.81 420.785 470.84C418.572 463.871 418.099 456.452 419.409 449.251C420.137 440.441 423.898 433.047 430.995 433.478L431.601 433.478C433.074 433.387 434.547 433.64 435.908 434.218C445.507 438.173 455.757 440.243 466.115 440.317ZM306.283 345.124L304.099 352.025C304.043 352.157 303.949 352.269 303.831 352.348C303.712 352.427 303.574 352.469 303.432 352.469C303.29 352.469 303.152 352.427 303.033 352.348C302.915 352.269 302.821 352.157 302.765 352.025L300.642 345.124C300.387 344.333 299.952 343.613 299.372 343.025C298.793 342.436 298.085 341.994 297.306 341.735L290.573 339.579C290.396 339.579 290.226 339.507 290.101 339.38C289.976 339.253 289.906 339.081 289.906 338.901C289.906 338.721 289.976 338.549 290.101 338.422C290.226 338.295 290.396 338.223 290.573 338.223L297.306 336.067C298.085 335.808 298.793 335.366 299.372 334.777C299.952 334.189 300.387 333.469 300.642 332.678L302.765 325.777C302.821 325.645 302.915 325.533 303.033 325.454C303.152 325.375 303.29 325.333 303.432 325.333C303.574 325.333 303.712 325.375 303.831 325.454C303.949 325.533 304.043 325.645 304.099 325.777L306.283 332.678C306.527 333.465 306.952 334.182 307.521 334.771C308.09 335.36 308.788 335.804 309.559 336.067L316.352 338.223C316.529 338.223 316.699 338.295 316.824 338.422C316.949 338.549 317.019 338.721 317.019 338.901C317.019 339.081 316.949 339.253 316.824 339.38C316.699 339.507 316.529 339.579 316.352 339.579L309.559 341.735C308.788 341.998 308.09 342.442 307.521 343.031C306.952 343.62 306.527 344.337 306.283 345.124ZM366.031 449.498L351.655 453.996C350.012 454.51 348.518 455.425 347.302 456.66C346.086 457.895 345.186 459.412 344.679 461.081L340.13 475.684C340.024 475.981 339.83 476.238 339.575 476.42C339.32 476.601 339.016 476.699 338.704 476.699C338.393 476.699 338.089 476.601 337.834 476.42C337.579 476.238 337.385 475.981 337.279 475.684L332.73 461.081C332.199 459.415 331.283 457.903 330.059 456.67C328.835 455.438 327.338 454.52 325.693 453.996L311.318 449.375C311.025 449.267 310.772 449.07 310.593 448.811C310.414 448.552 310.318 448.243 310.318 447.927C310.318 447.61 310.414 447.302 310.593 447.043C310.772 446.784 311.025 446.587 311.318 446.479L325.693 441.858C327.337 441.313 328.832 440.382 330.054 439.14C331.277 437.898 332.194 436.381 332.73 434.711L337.279 420.108C337.385 419.811 337.579 419.554 337.834 419.372C338.089 419.191 338.393 419.093 338.704 419.093C339.016 419.093 339.32 419.191 339.575 419.372C339.83 419.554 340.024 419.811 340.13 420.108L344.679 434.711C345.196 436.381 346.099 437.901 347.312 439.145C348.526 440.388 350.015 441.319 351.655 441.858L366.031 446.479C366.373 446.549 366.682 446.738 366.903 447.014C367.124 447.289 367.245 447.633 367.245 447.988C367.245 448.344 367.124 448.688 366.903 448.963C366.682 449.238 366.373 449.427 366.031 449.498ZM424.808 292.999C421.978 293.852 419.395 295.391 417.281 297.484C415.168 299.577 413.587 302.161 412.676 305.013L404.973 329.659C404.827 330.191 404.514 330.659 404.081 330.993C403.649 331.327 403.12 331.508 402.577 331.508C402.033 331.508 401.505 331.327 401.072 330.993C400.639 330.659 400.326 330.191 400.181 329.659L392.477 305.013C391.566 302.161 389.986 299.577 387.872 297.484C385.759 295.391 383.176 293.852 380.346 292.999L356.083 285.174C355.569 285.006 355.12 284.678 354.802 284.235C354.483 283.792 354.312 283.258 354.312 282.709C354.312 282.161 354.483 281.627 354.802 281.184C355.12 280.741 355.569 280.412 356.083 280.245L380.346 272.42C383.176 271.567 385.759 270.027 387.872 267.934C389.986 265.841 391.566 263.257 392.477 260.405L400.181 235.759C400.359 235.259 400.684 234.826 401.113 234.521C401.542 234.215 402.053 234.051 402.577 234.051C403.1 234.051 403.612 234.215 404.04 234.521C404.469 234.826 404.795 235.259 404.973 235.759L412.676 260.405C413.587 263.257 415.168 265.841 417.281 267.934C419.395 270.027 421.978 271.567 424.808 272.42L449.071 280.245C449.585 280.412 450.033 280.741 450.352 281.184C450.67 281.627 450.841 282.161 450.841 282.709C450.841 283.258 450.67 283.792 450.352 284.235C450.033 284.678 449.585 285.006 449.071 285.174L424.808 292.999Z" fill-rule="nonzero" fill="url(#paint_linear_11905_4406_0)"/>
	<path id="Vector" d="M556.303 309.161L571.65 351.675C578.87 347.608 586.549 344.443 594.517 342.248L596.883 341.632C615.08 336.703 631.276 321.238 643.953 302.939L570.254 291.725C568.047 291.393 565.792 291.65 563.712 292.471C561.632 293.292 559.798 294.648 558.391 296.408C556.983 298.167 556.05 300.268 555.684 302.504C555.318 304.74 555.532 307.034 556.303 309.161Z" fill-rule="nonzero" fill="#E06B00"/>
	<path id="Vector" d="M826.816 484.002C826.816 482.708 826.816 481.353 826.816 480.059C826.816 476.916 826.452 473.897 826.148 470.57L826.148 468.29C826.148 467.12 826.148 465.949 826.148 464.717L824.935 460.157C824.935 457.57 824.329 455.043 823.965 452.456C823.99 452.189 823.99 451.921 823.965 451.655C823.965 449.437 823.297 447.218 822.934 445C822.934 444.507 822.934 444.015 822.934 443.522C822.934 443.029 822.509 441.057 822.266 439.825L822.266 438.777C821.781 436.313 821.356 433.787 820.811 431.26C820.811 430.583 820.811 429.905 820.386 429.227C818.991 423.066 817.353 416.35 815.594 410.065C815.594 410.065 815.594 409.634 815.594 409.449C815.594 406.122 815.169 402.795 814.866 399.529C814.381 394.415 813.774 389.425 813.046 384.434C812.319 379.443 810.923 372.727 809.65 366.997C802.036 334.204 787.865 303.351 768.019 276.354C748.172 249.358 723.072 226.795 694.279 210.067C692.443 208.964 690.346 208.389 688.214 208.403C684.963 208.499 681.877 209.879 679.612 212.249C677.347 214.619 676.081 217.792 676.082 221.096L676.082 221.589C676.082 222.328 676.082 223.067 676.082 223.868C675.877 235.664 673.83 247.352 670.016 258.495C664.356 274.56 656.582 289.773 646.906 303.72C634.228 322.204 618.033 337.484 599.836 342.413L597.47 343.029C579.579 347.867 563.301 357.509 550.344 370.941C537.387 384.374 528.229 401.102 523.832 419.369C512.49 429.582 498.583 436.399 483.656 439.064C468.728 441.729 453.365 440.137 439.275 434.464C437.914 433.887 436.441 433.634 434.969 433.725C448.313 434.896 426.719 447.403 441.884 464.963C447.499 470.884 454.168 475.672 461.537 479.073C463.053 479.812 463.478 480.12 463.235 480.12C503.815 505.197 570.599 526.516 655.034 482.03C733.888 440.564 789.511 482.585 823.661 542.597C823.688 542.207 823.688 541.816 823.661 541.426C823.661 539.516 824.086 537.668 824.329 535.758C824.571 533.848 824.935 530.644 825.178 528.117C825.208 527.893 825.208 527.665 825.178 527.44C825.178 526.269 825.178 525.098 825.481 523.928C825.481 519.861 826.088 515.795 826.27 511.605C826.27 511.174 826.27 510.804 826.27 510.373C826.27 506.306 826.27 502.24 826.27 498.05L826.27 497.68C827.119 493.429 826.998 488.685 826.816 484.002Z" fill-rule="nonzero" fill="#FF9C41"/>
	<path id="Vector" d="M655.322 482.783C570.886 527.268 504.103 505.95 463.523 480.873C463.523 480.873 463.523 480.565 461.824 479.826C454.455 476.425 447.787 471.637 442.172 465.716C427.007 448.156 448.601 435.648 435.257 434.478L434.65 434.478C427.553 434.047 423.792 441.44 423.064 450.251C421.754 457.452 422.227 464.871 424.44 471.84C426.653 478.809 430.536 485.11 435.742 490.177C441.019 495.402 446.567 500.338 452.362 504.964C492.327 535.41 540.948 551.844 590.903 551.791C601.454 551.77 611.992 551.029 622.445 549.572L624.265 549.572C627.541 549.572 630.755 549.573 633.97 549.08L635.972 549.08L636.518 549.08C638.948 549.039 641.361 549.485 643.621 550.391C645.881 551.298 647.943 552.649 649.689 554.365C651.435 556.082 652.832 558.131 653.798 560.395C654.764 562.66 655.282 565.096 655.322 567.564L655.322 589.683C655.328 596.56 653.571 603.319 650.226 609.297C646.88 615.275 642.06 620.266 636.24 623.778C630.42 627.29 623.8 629.203 617.032 629.329C610.263 629.455 603.579 627.789 597.636 624.495C554.57 600.712 524.12 579.086 533.34 581.365C511.813 574.78 491.37 564.978 472.682 552.284L472.197 552.284C408.082 531.027 326.619 559.985 320.007 652.344C316.429 704.531 324.193 735.77 354.582 782.288C388.49 834.229 393.464 922.952 288.89 953.574C284.159 953.574 279.428 954.129 274.575 954.129C305.466 954.151 335.926 946.776 363.485 932.602C391.045 918.428 414.927 897.855 433.194 872.552L437.38 866.391L439.199 863.495C439.927 862.448 440.594 861.339 441.322 860.229C442.05 859.12 442.839 857.642 443.627 856.348L444.962 854.068C445.872 852.528 446.66 850.987 447.509 849.385L448.419 847.784C449.086 846.49 449.693 845.196 450.36 843.84C450.619 843.408 450.842 842.954 451.027 842.485L451.573 841.437C452.483 839.527 453.393 837.556 454.242 835.584L454.242 834.968C455.152 832.935 456.062 830.84 456.911 828.806C457.76 826.65 458.61 824.432 459.398 822.152L461.582 816.73C464.226 802.337 464.038 787.556 461.029 773.237C458.02 758.919 452.25 745.347 444.052 733.305L444.052 731.087C444.052 731.087 488.817 739.774 562.091 816.237C559.665 816.607 557.299 817.1 554.873 817.408C559.726 816.73 564.578 815.929 569.37 815.005C573.01 814.266 576.71 813.526 580.349 812.664L581.259 812.664L584.17 811.924C588.113 810.938 592.056 809.891 595.938 808.782L597.272 808.412C601.155 807.303 605.037 806.071 608.858 804.777C624.845 799.442 640.383 792.807 655.322 784.937L655.989 784.568C659.507 782.719 662.904 780.809 666.301 778.838L667.574 778.098C671.032 776.065 674.429 774.032 677.765 771.937C681.708 769.411 685.59 766.823 689.411 764.112L691.716 762.633C695.416 760.045 699.056 757.334 702.634 754.562C733.233 730.847 759.336 701.681 779.669 668.487C781.065 666.208 782.338 663.928 783.673 661.648L785.129 659.183L786.948 655.856C795.627 640.086 802.972 623.597 808.906 606.565L809.816 603.916C811.393 599.172 812.849 594.366 814.244 589.56C814.608 588.389 814.911 587.157 815.275 585.986C816.549 581.242 817.762 576.498 818.793 571.692C818.793 570.583 819.339 569.412 819.582 568.303C820.734 562.819 821.826 557.274 822.675 551.667C822.675 551.298 822.675 550.928 822.675 550.558C822.979 548.463 823.161 546.369 823.464 544.397C790.042 483.338 734.176 441.317 655.322 482.783Z" fill-rule="nonzero" fill="#FFDDBD"/>
	<path id="Vector" d="M352.069 781.781C321.74 735.263 313.915 704.025 317.494 651.838C323.56 559.417 405.569 530.52 469.684 551.777C468.592 551.037 467.5 550.483 466.408 549.805C464.042 548.326 461.737 546.848 459.311 545.554L455.186 543.397C452.821 542.165 450.516 540.933 448.09 539.824C445.663 538.715 444.207 538.16 442.024 537.359C439.84 536.558 438.202 535.634 435.958 534.895C432.015 533.416 427.951 532.06 423.827 530.828L391.435 524.667C385.916 524.112 380.335 523.804 374.694 523.804C328.927 523.765 284.956 541.895 252.166 574.327C251.802 574.327 251.499 575.005 251.196 575.313C249.255 577.285 247.233 579.339 245.13 581.475L242.825 584.062L238.7 588.93C237.912 589.916 237.123 590.902 236.395 591.949C235.667 592.996 233.787 595.276 232.574 597.001L230.511 599.897C229.056 601.992 227.6 604.149 226.265 606.059C225.841 606.613 225.477 607.229 225.052 607.845C223.354 610.618 221.777 613.452 220.2 616.286C219.714 617.211 219.29 618.135 218.805 618.997L216.136 624.358L215.711 625.159L214.195 628.486L211.647 634.647C211.222 635.756 210.737 636.866 210.312 638.036C209.463 640.254 208.675 642.534 207.886 644.814L206.976 647.525C206.552 648.88 206.188 650.236 205.824 651.591C205.46 652.947 204.671 655.35 204.186 657.198C204.186 657.938 203.883 658.615 203.701 659.293C203.094 661.942 202.488 664.53 201.942 667.241C201.942 668.35 201.517 669.521 201.335 670.692C200.931 672.992 200.567 675.271 200.243 677.531C200.243 678.763 199.94 679.995 199.758 681.227C199.758 683.63 199.273 686.033 199.091 688.436C199.091 689.545 199.091 690.654 199.091 691.763C199.091 695.214 198.788 698.787 198.788 702.299C198.788 730.619 205.416 758.533 218.124 783.74C230.833 808.947 249.258 830.724 271.88 847.277C275.034 849.557 277.945 851.775 281.464 853.808C288.618 858.183 294.644 864.226 299.042 871.437C303.441 878.648 306.086 886.819 306.758 895.274C306.758 896.383 306.758 897.492 306.758 898.601C306.783 911.914 302.04 924.782 293.412 934.804C284.785 944.826 272.862 951.318 259.87 953.068C263.873 953.068 267.998 953.499 272.001 953.499C276.004 953.499 281.585 953.499 286.316 952.945C390.95 922.261 385.976 833.722 352.069 781.781Z" fill-rule="nonzero" fill="#FF9C41"/>
	<path id="Vector" d="M507.238 819.673C511.969 819.673 516.64 819.673 521.31 819.673C526.405 819.673 531.44 819.057 536.414 818.626C541.388 818.195 546.301 817.578 551.214 816.901L551.578 816.901C554.005 816.901 556.37 816.1 558.797 815.73C485.826 738.836 441.06 730.148 441.06 730.148L441.06 732.367C449.259 744.408 455.029 757.98 458.038 772.299C461.046 786.617 461.234 801.399 458.59 815.792L465.323 816.839L469.751 817.517C472.966 817.887 476.242 818.256 479.517 818.503L483.703 818.872C488.07 819.242 492.437 819.489 496.805 819.612L500.08 819.612L507.116 819.612L507.238 819.673Z" fill-rule="nonzero" fill="#E06B00"/>
</svg>
